<svg width="210" height="66" viewBox="0 0 210 66" fill="none" xmlns="http://www.w3.org/2000/svg">
<path d="M63 49.648V49.168L63.864 48.832C64.504 48.576 64.936 48.256 65.16 47.872C65.416 47.488 65.544 46.976 65.544 46.336V21.28C65.544 20.608 65.416 20.08 65.16 19.696C64.936 19.312 64.504 19.008 63.864 18.784L63 18.448V17.968H76.776C80.68 17.968 83.496 18.688 85.224 20.128C86.952 21.536 87.816 23.328 87.816 25.504C87.816 27.136 87.176 28.624 85.896 29.968C84.648 31.28 82.488 32.208 79.416 32.752C82.936 33.136 85.512 34.064 87.144 35.536C88.776 36.976 89.592 38.736 89.592 40.816C89.592 41.84 89.368 42.88 88.92 43.936C88.472 44.96 87.704 45.904 86.616 46.768C85.56 47.632 84.104 48.336 82.248 48.88C80.392 49.392 78.04 49.648 75.192 49.648H63ZM72.648 32.704H74.712C76.856 32.704 78.392 32.208 79.32 31.216C80.28 30.224 80.76 28.496 80.76 26.032C80.76 23.472 80.328 21.648 79.464 20.56C78.6 19.472 77.192 18.928 75.24 18.928H72.648V32.704ZM72.648 48.688H75.048C77.448 48.688 79.224 48.048 80.376 46.768C81.56 45.488 82.152 43.488 82.152 40.768C82.152 38.208 81.592 36.384 80.472 35.296C79.352 34.208 77.512 33.664 74.952 33.664H72.648V48.688ZM104.017 50.368C101.585 50.368 99.4728 49.872 97.6808 48.88C95.8888 47.856 94.4968 46.416 93.5048 44.56C92.5448 42.704 92.0648 40.528 92.0648 38.032C92.0648 35.536 92.5768 33.376 93.6008 31.552C94.6568 29.728 96.0808 28.32 97.8728 27.328C99.6968 26.336 101.745 25.84 104.017 25.84C106.289 25.84 108.321 26.336 110.113 27.328C111.905 28.288 113.313 29.68 114.337 31.504C115.393 33.328 115.921 35.504 115.921 38.032C115.921 40.56 115.425 42.752 114.433 44.608C113.473 46.432 112.097 47.856 110.305 48.88C108.545 49.872 106.449 50.368 104.017 50.368ZM104.017 49.408C105.137 49.408 106.033 49.088 106.705 48.448C107.377 47.808 107.857 46.672 108.145 45.04C108.465 43.408 108.625 41.104 108.625 38.128C108.625 35.12 108.465 32.8 108.145 31.168C107.857 29.536 107.377 28.4 106.705 27.76C106.033 27.12 105.137 26.8 104.017 26.8C102.897 26.8 101.985 27.12 101.281 27.76C100.609 28.4 100.113 29.536 99.7928 31.168C99.5048 32.8 99.3608 35.12 99.3608 38.128C99.3608 41.104 99.5048 43.408 99.7928 45.04C100.113 46.672 100.609 47.808 101.281 48.448C101.985 49.088 102.897 49.408 104.017 49.408ZM130.454 50.368C128.022 50.368 125.91 49.872 124.118 48.88C122.326 47.856 120.934 46.416 119.942 44.56C118.982 42.704 118.502 40.528 118.502 38.032C118.502 35.536 119.014 33.376 120.038 31.552C121.094 29.728 122.518 28.32 124.31 27.328C126.134 26.336 128.182 25.84 130.454 25.84C132.726 25.84 134.758 26.336 136.55 27.328C138.342 28.288 139.75 29.68 140.774 31.504C141.83 33.328 142.358 35.504 142.358 38.032C142.358 40.56 141.862 42.752 140.87 44.608C139.91 46.432 138.534 47.856 136.742 48.88C134.982 49.872 132.886 50.368 130.454 50.368ZM130.454 49.408C131.574 49.408 132.47 49.088 133.142 48.448C133.814 47.808 134.294 46.672 134.582 45.04C134.902 43.408 135.062 41.104 135.062 38.128C135.062 35.12 134.902 32.8 134.582 31.168C134.294 29.536 133.814 28.4 133.142 27.76C132.47 27.12 131.574 26.8 130.454 26.8C129.334 26.8 128.422 27.12 127.718 27.76C127.046 28.4 126.55 29.536 126.23 31.168C125.942 32.8 125.798 35.12 125.798 38.128C125.798 41.104 125.942 43.408 126.23 45.04C126.55 46.672 127.046 47.808 127.718 48.448C128.422 49.088 129.334 49.408 130.454 49.408ZM144.375 49.648V49.168L145.095 48.928C146.183 48.576 146.727 47.792 146.727 46.576V20.896C146.727 20.256 146.599 19.776 146.343 19.456C146.087 19.136 145.639 18.88 144.999 18.688L144.375 18.544V18.064L153.159 16L153.735 16.432L153.591 23.152V46.576C153.591 47.856 154.119 48.656 155.175 48.976L155.847 49.168V49.648H144.375ZM162.183 49.648L153.639 37.648L162.519 29.44C162.935 29.056 163.175 28.656 163.239 28.24C163.335 27.792 163.063 27.472 162.423 27.28L161.607 27.04V26.56H168.759V27.04L167.319 27.424C166.615 27.648 166.039 27.92 165.591 28.24C165.175 28.528 164.663 28.944 164.055 29.488L158.679 34.528L167.271 46.48C167.783 47.184 168.263 47.728 168.711 48.112C169.159 48.496 169.735 48.816 170.439 49.072L170.631 49.168V49.648H162.183ZM177.977 23.344C176.889 23.344 175.961 23.008 175.193 22.336C174.457 21.632 174.089 20.752 174.089 19.696C174.089 18.608 174.457 17.728 175.193 17.056C175.961 16.384 176.889 16.048 177.977 16.048C179.065 16.048 179.977 16.384 180.713 17.056C181.449 17.728 181.817 18.608 181.817 19.696C181.817 20.752 181.449 21.632 180.713 22.336C179.977 23.008 179.065 23.344 177.977 23.344ZM172.313 49.648V49.168L172.985 48.976C173.625 48.784 174.057 48.496 174.281 48.112C174.537 47.728 174.665 47.216 174.665 46.576V31.552C174.665 30.88 174.537 30.384 174.281 30.064C174.057 29.712 173.625 29.472 172.985 29.344L172.313 29.2V28.72L181.097 25.888L181.577 26.368L181.433 33.184V46.624C181.433 47.264 181.545 47.776 181.769 48.16C182.025 48.544 182.457 48.832 183.065 49.024L183.545 49.168V49.648H172.313ZM192.678 50.368C190.822 50.368 189.254 49.84 187.974 48.784C186.726 47.728 186.102 46.208 186.102 44.224C186.102 42.72 186.87 41.344 188.406 40.096C189.942 38.816 192.358 37.856 195.654 37.216C196.166 37.12 196.742 37.024 197.382 36.928C198.022 36.8 198.694 36.672 199.398 36.544V32.752C199.398 30.576 199.126 29.056 198.582 28.192C198.07 27.296 197.254 26.848 196.134 26.848C195.366 26.848 194.758 27.104 194.31 27.616C193.862 28.096 193.574 28.944 193.446 30.16L193.35 30.688C193.286 32.064 192.95 33.072 192.342 33.712C191.734 34.352 190.982 34.672 190.086 34.672C189.254 34.672 188.566 34.416 188.022 33.904C187.478 33.392 187.206 32.704 187.206 31.84C187.206 30.528 187.654 29.424 188.55 28.528C189.478 27.632 190.694 26.96 192.198 26.512C193.702 26.064 195.334 25.84 197.094 25.84C199.942 25.84 202.134 26.544 203.67 27.952C205.238 29.328 206.022 31.584 206.022 34.72V45.328C206.022 46.768 206.694 47.488 208.038 47.488H209.094L209.526 47.872C208.918 48.64 208.246 49.232 207.51 49.648C206.806 50.064 205.798 50.272 204.486 50.272C203.078 50.272 201.958 49.952 201.126 49.312C200.326 48.64 199.798 47.76 199.542 46.672C198.582 47.696 197.59 48.576 196.566 49.312C195.574 50.016 194.278 50.368 192.678 50.368ZM195.606 47.44C196.246 47.44 196.838 47.296 197.382 47.008C197.958 46.688 198.63 46.208 199.398 45.568V37.504C199.078 37.568 198.758 37.632 198.438 37.696C198.118 37.76 197.75 37.824 197.334 37.888C195.862 38.272 194.678 38.928 193.782 39.856C192.918 40.752 192.486 41.968 192.486 43.504C192.486 44.816 192.79 45.808 193.398 46.48C194.006 47.12 194.742 47.44 195.606 47.44Z" fill="#2F2F2F"/>
<path d="M28.5 16.5875V54.6588C28.0963 54.6588 27.6688 54.5875 27.3363 54.3975L27.2413 54.35C22.6813 51.8563 14.725 49.2438 9.57125 48.555L8.8825 48.46C6.6025 48.175 4.75 46.0375 4.75 43.7575V15.0675C4.75 12.2413 7.05375 10.1038 9.88 10.3413C14.8675 10.745 22.42 13.2625 26.6475 15.8988L27.2413 16.255C27.5975 16.4688 28.0487 16.5875 28.5 16.5875Z" fill="#BFA054"/>
<path d="M52.25 15.0913V43.7575C52.25 46.0375 50.3975 48.175 48.1175 48.46L47.3338 48.555C42.1563 49.2438 34.1763 51.88 29.6163 54.3975C29.3075 54.5875 28.9275 54.6588 28.5 54.6588V16.5875C28.9512 16.5875 29.4025 16.4688 29.7587 16.255L30.1625 15.9938C34.39 13.3338 41.9663 10.7925 46.9538 10.365H47.0963C49.9225 10.1275 52.25 12.2413 52.25 15.0913Z" fill="#2F2F2F"/>
<path d="M18.4062 25.9449H13.0625C12.0888 25.9449 11.2812 25.1374 11.2812 24.1637C11.2812 23.1899 12.0888 22.3824 13.0625 22.3824H18.4062C19.38 22.3824 20.1875 23.1899 20.1875 24.1637C20.1875 25.1374 19.38 25.9449 18.4062 25.9449Z" fill="#2F2F2F"/>
<path d="M20.1875 33.0699H13.0625C12.0888 33.0699 11.2812 32.2624 11.2812 31.2887C11.2812 30.3149 12.0888 29.5074 13.0625 29.5074H20.1875C21.1613 29.5074 21.9688 30.3149 21.9688 31.2887C21.9688 32.2624 21.1613 33.0699 20.1875 33.0699Z" fill="#2F2F2F"/>
</svg>
