<svg width="19" height="21" viewBox="0 0 19 21" fill="none" xmlns="http://www.w3.org/2000/svg">
<path fill-rule="evenodd" clip-rule="evenodd" d="M12.6469 0.916748C16.1803 0.916748 18.2073 2.52579 18.2073 5.32892V19.2592C18.2073 19.8438 17.8803 20.37 17.3303 20.6642C16.7823 20.9593 16.1219 20.9651 15.5677 20.6776L9.35942 17.4509L3.09379 20.6843C2.82296 20.8242 2.52608 20.8951 2.22817 20.8951C1.92087 20.8951 1.61358 20.8194 1.33442 20.668C0.785457 20.3738 0.458374 19.8477 0.458374 19.264V5.15354C0.458374 2.46062 2.4865 0.916748 6.02296 0.916748H12.6469ZM12.6469 2.35425H6.02296C3.36775 2.35425 2.02087 3.29533 2.02087 5.15354V19.264C2.02087 19.3541 2.07712 19.403 2.124 19.4279C2.17087 19.4547 2.24483 19.4739 2.33025 19.4298L8.97817 15.999C9.21567 15.8773 9.50629 15.8763 9.74483 16L16.3355 19.425C16.4219 19.471 16.4959 19.45 16.5427 19.4241C16.5896 19.3982 16.6448 19.3493 16.6448 19.2592L16.6445 5.21971C16.6366 4.3949 16.4631 2.35425 12.6469 2.35425ZM13.104 7.36489C13.5352 7.36489 13.8853 7.68689 13.8853 8.08364C13.8853 8.48039 13.5352 8.80239 13.104 8.80239H5.48108C5.04983 8.80239 4.69983 8.48039 4.69983 8.08364C4.69983 7.68689 5.04983 7.36489 5.48108 7.36489H13.104Z" fill="black"/>
</svg>
