<svg width="21" height="21" viewBox="0 0 21 21" fill="none" xmlns="http://www.w3.org/2000/svg">
<path d="M10.5 14C11.9497 14 13.125 12.8247 13.125 11.375C13.125 9.92525 11.9497 8.75 10.5 8.75C9.05025 8.75 7.875 9.92525 7.875 11.375C7.875 12.8247 9.05025 14 10.5 14Z" stroke="#BFA054" stroke-width="1.5"/>
<path d="M1.75 11.6935C1.75 9.01167 1.75 7.67117 2.40538 6.70867C2.69025 6.29041 3.05478 5.93242 3.47812 5.65517C4.10812 5.24129 4.89738 5.09342 6.10575 5.04092C6.68238 5.04092 7.1785 4.61217 7.29138 4.05654C7.37764 3.64955 7.60176 3.28482 7.92588 3.024C8.25 2.76317 8.65423 2.62225 9.07025 2.62504H11.9297C12.7942 2.62504 13.5389 3.22442 13.7086 4.05654C13.8215 4.61217 14.3176 5.04092 14.8942 5.04092C16.1017 5.09342 16.891 5.24217 17.5219 5.65517C17.9462 5.93342 18.3111 6.29129 18.5946 6.70867C19.25 7.67117 19.25 9.01167 19.25 11.6935C19.25 14.3754 19.25 15.715 18.5946 16.6784C18.3098 17.0967 17.9452 17.4547 17.5219 17.7319C16.541 18.375 15.1751 18.375 12.4443 18.375H8.55575C5.82487 18.375 4.459 18.375 3.47812 17.7319C3.05501 17.4543 2.69078 17.096 2.40625 16.6775C2.21615 16.3944 2.07615 16.0806 1.99237 15.75M16.625 8.75004H15.75" stroke="#BFA054" stroke-width="1.5" stroke-linecap="round"/>
</svg>
