<svg width="26" height="25" viewBox="0 0 26 25" fill="none" xmlns="http://www.w3.org/2000/svg">
<g clip-path="url(#clip0_732_277)">
<path fill-rule="evenodd" clip-rule="evenodd" d="M3.71558 4.31539C3.71558 4.13779 3.78613 3.96747 3.91171 3.84189C4.03729 3.7163 4.20762 3.64575 4.38522 3.64575H6.39415C6.54352 3.64579 6.68859 3.69578 6.80629 3.78775C6.92399 3.87972 7.00755 4.00841 7.0437 4.15334L7.58611 6.32432H23.1352C23.2369 6.32435 23.3373 6.34755 23.4287 6.39216C23.5201 6.43677 23.6002 6.50162 23.6628 6.58179C23.7254 6.66195 23.7689 6.75533 23.7901 6.85482C23.8112 6.95432 23.8094 7.05733 23.7848 7.15602L21.7758 15.1917C21.7397 15.3367 21.6561 15.4654 21.5384 15.5573C21.4207 15.6493 21.2757 15.6993 21.1263 15.6993H9.07272C8.92335 15.6993 8.77828 15.6493 8.66058 15.5573C8.54288 15.4654 8.45931 15.3367 8.42317 15.1917L5.87183 4.98504H4.38522C4.20762 4.98504 4.03729 4.91449 3.91171 4.7889C3.78613 4.66332 3.71558 4.493 3.71558 4.31539ZM7.92093 7.66361L9.59504 14.36H20.604L22.2781 7.66361H7.92093ZM10.412 18.3779C10.0568 18.3779 9.71615 18.519 9.46499 18.7702C9.21382 19.0213 9.07272 19.362 9.07272 19.7172C9.07272 20.0724 9.21382 20.413 9.46499 20.6642C9.71615 20.9154 10.0568 21.0565 10.412 21.0565C10.7672 21.0565 11.1079 20.9154 11.359 20.6642C11.6102 20.413 11.7513 20.0724 11.7513 19.7172C11.7513 19.362 11.6102 19.0213 11.359 18.7702C11.1079 18.519 10.7672 18.3779 10.412 18.3779ZM7.73343 19.7172C7.73343 19.0068 8.01564 18.3255 8.51797 17.8231C9.0203 17.3208 9.7016 17.0386 10.412 17.0386C11.1224 17.0386 11.8037 17.3208 12.306 17.8231C12.8084 18.3255 13.0906 19.0068 13.0906 19.7172C13.0906 20.4276 12.8084 21.1089 12.306 21.6112C11.8037 22.1135 11.1224 22.3958 10.412 22.3958C9.7016 22.3958 9.0203 22.1135 8.51797 21.6112C8.01564 21.1089 7.73343 20.4276 7.73343 19.7172ZM19.787 18.3779C19.4318 18.3779 19.0912 18.519 18.84 18.7702C18.5888 19.0213 18.4477 19.362 18.4477 19.7172C18.4477 20.0724 18.5888 20.413 18.84 20.6642C19.0912 20.9154 19.4318 21.0565 19.787 21.0565C20.1422 21.0565 20.4829 20.9154 20.734 20.6642C20.9852 20.413 21.1263 20.0724 21.1263 19.7172C21.1263 19.362 20.9852 19.0213 20.734 18.7702C20.4829 18.519 20.1422 18.3779 19.787 18.3779ZM17.1084 19.7172C17.1084 19.0068 17.3906 18.3255 17.893 17.8231C18.3953 17.3208 19.0766 17.0386 19.787 17.0386C20.4974 17.0386 21.1787 17.3208 21.681 17.8231C22.1834 18.3255 22.4656 19.0068 22.4656 19.7172C22.4656 20.4276 22.1834 21.1089 21.681 21.6112C21.1787 22.1135 20.4974 22.3958 19.787 22.3958C19.0766 22.3958 18.3953 22.1135 17.893 21.6112C17.3906 21.1089 17.1084 20.4276 17.1084 19.7172Z" fill="black"/>
</g>
<defs>
<clipPath id="clip0_732_277">
<rect width="25" height="25" fill="white" transform="translate(0.666626)"/>
</clipPath>
</defs>
</svg>
